<svg width="22" height="22" viewBox="0 0 22 22" fill="none" xmlns="http://www.w3.org/2000/svg">
<g id="elements">
<path id="Vector" d="M1.5 11.0002C1.5 6.5219 1.5 4.28273 2.89124 2.89149C4.28249 1.50024 6.52166 1.50024 11 1.50024C15.4783 1.50024 17.7175 1.50024 19.1088 2.89149C20.5 4.28273 20.5 6.5219 20.5 11.0002C20.5 15.4786 20.5 17.7178 19.1088 19.109C17.7175 20.5002 15.4783 20.5002 11 20.5002C6.52166 20.5002 4.28249 20.5002 2.89124 19.109C1.5 17.7178 1.5 15.4786 1.5 11.0002Z" stroke="#6366F1" stroke-width="1.5" stroke-linejoin="round"/>
<path id="Vector_2" d="M11.75 6C11.75 5.58579 11.4142 5.25 11 5.25C10.5858 5.25 10.25 5.58579 10.25 6H11.75ZM13.0303 11.9697C12.7374 11.6768 12.2626 11.6768 11.9697 11.9697C11.6768 12.2626 11.6768 12.7374 11.9697 13.0303L13.0303 11.9697ZM13.4697 14.5303C13.7626 14.8232 14.2374 14.8232 14.5303 14.5303C14.8232 14.2374 14.8232 13.7626 14.5303 13.4697L13.4697 14.5303ZM10.25 6V9.5H11.75V6H10.25ZM11.9697 13.0303L13.4697 14.5303L14.5303 13.4697L13.0303 11.9697L11.9697 13.0303ZM11.75 11C11.75 11.4142 11.4142 11.75 11 11.75V13.25C12.2426 13.25 13.25 12.2426 13.25 11H11.75ZM11 11.75C10.5858 11.75 10.25 11.4142 10.25 11H8.75C8.75 12.2426 9.75736 13.25 11 13.25V11.75ZM10.25 11C10.25 10.5858 10.5858 10.25 11 10.25V8.75C9.75736 8.75 8.75 9.75736 8.75 11H10.25ZM11 10.25C11.4142 10.25 11.75 10.5858 11.75 11H13.25C13.25 9.75736 12.2426 8.75 11 8.75V10.25Z" fill="#6366F1"/>
</g>
</svg>
