<svg width="22" height="22" viewBox="0 0 22 22" fill="none" xmlns="http://www.w3.org/2000/svg">
<g id="elements">
<path id="Vector" d="M2.5 17C2.5 15.5858 2.5 14.8787 2.93934 14.4393C3.37868 14 4.08579 14 5.5 14H6C6.94281 14 7.41421 14 7.70711 14.2929C8 14.5858 8 15.0572 8 16V21H2.5V17Z" stroke="#334155" stroke-width="1.5" stroke-linecap="round" stroke-linejoin="round"/>
<path id="Vector_2" d="M14 18C14 17.0572 14 16.5858 14.2929 16.2929C14.5858 16 15.0572 16 16 16H16.5C17.9142 16 18.6213 16 19.0607 16.4393C19.5 16.8787 19.5 17.5858 19.5 19V21H14V18Z" stroke="#334155" stroke-width="1.5" stroke-linecap="round" stroke-linejoin="round"/>
<path id="Vector_3" d="M1 21H21" stroke="#334155" stroke-width="1.5" stroke-linecap="round" stroke-linejoin="round"/>
<path id="Vector_4" d="M8 15C8 13.5858 8 12.8787 8.43934 12.4393C8.87868 12 9.58579 12 11 12C12.4142 12 13.1213 12 13.5607 12.4393C14 12.8787 14 13.5858 14 15V21H8V15Z" stroke="#334155" stroke-width="1.5" stroke-linecap="round" stroke-linejoin="round"/>
<path id="Vector_5" d="M11.6911 1.57767L12.395 2.99715C12.491 3.19475 12.7469 3.38428 12.9629 3.42057L14.2388 3.6343C15.0547 3.77141 15.2467 4.36824 14.6587 4.957L13.6668 5.95709C13.4989 6.12646 13.4069 6.4531 13.4589 6.68699L13.7428 7.925C13.9668 8.90492 13.4509 9.28399 12.591 8.77185L11.3951 8.05808C11.1791 7.92903 10.8232 7.92903 10.6032 8.05808L9.40731 8.77185C8.5514 9.28399 8.03146 8.90089 8.25543 7.925L8.5394 6.68699C8.5914 6.4531 8.49941 6.12646 8.33143 5.95709L7.33954 4.957C6.7556 4.36824 6.94358 3.77141 7.75949 3.6343L9.03535 3.42057C9.24732 3.38428 9.5033 3.19475 9.59929 2.99715L10.3032 1.57767C10.6872 0.807443 11.3111 0.807443 11.6911 1.57767Z" stroke="#334155" stroke-width="1.5" stroke-linecap="round" stroke-linejoin="round"/>
</g>
</svg>
