<svg width="20" height="31" viewBox="0 0 20 31" fill="none" xmlns="http://www.w3.org/2000/svg">
<g id="Icon">
<path id="Vector" d="M10 7.21875C8.48958 7.21875 7.09635 7.58984 5.82031 8.33203C4.54427 9.07422 3.53516 10.0833 2.79297 11.3594C2.05078 12.6354 1.67969 14.0286 1.67969 15.5391C1.67969 16.9193 1.98568 18.2018 2.59766 19.3867C3.20964 20.5716 4.04948 21.5547 5.11719 22.3359C6.1849 23.1172 7.38281 23.599 8.71094 23.7812V17.9609H6.60156V15.5391H8.71094V13.7031C8.71094 12.6875 8.99089 11.8932 9.55078 11.3203C10.1107 10.7474 10.8724 10.4609 11.8359 10.4609C12.4609 10.4609 13.0859 10.513 13.7109 10.6172V12.6875H12.6562C12.1875 12.6875 11.8359 12.8177 11.6016 13.0781C11.3932 13.3125 11.2891 13.612 11.2891 13.9766V15.5391H13.6328L13.2422 17.9609H11.2891V23.7812C12.6432 23.5729 13.8542 23.0781 14.9219 22.2969C15.9896 21.5156 16.8229 20.5326 17.4219 19.3477C18.0208 18.1628 18.3203 16.8932 18.3203 15.5391C18.3203 14.0286 17.9492 12.6354 17.207 11.3594C16.4648 10.0833 15.4557 9.07422 14.1797 8.33203C12.9036 7.58984 11.5104 7.21875 10 7.21875Z" fill="white"/>
</g>
</svg>
