<svg width="22" height="22" viewBox="0 0 22 22" fill="none" xmlns="http://www.w3.org/2000/svg">
<g id="elements">
<path id="Vector" d="M19.016 1C17.9026 1 17 3.68629 17 7L19.016 7C19.9876 7 20.4734 7 20.7741 6.66455C21.0749 6.32909 21.0225 5.88733 20.9178 5.00381C20.6414 2.67143 19.8943 1 19.016 1Z" stroke="#1B1464" stroke-width="1.5"/>
<path id="Vector_2" d="M17 7.05426L17 17.6458C17 19.1575 17 19.9133 16.538 20.2108C15.7831 20.6971 14.6161 19.6774 14.0291 19.3073C13.5441 19.0014 13.3017 18.8485 13.0325 18.8397C12.7417 18.8301 12.4949 18.9768 11.9709 19.3073L10.06 20.5124C9.54454 20.8374 9.28679 21 9 21C8.71321 21 8.45546 20.8374 7.94 20.5124L6.02913 19.3073C5.54415 19.0014 5.30166 18.8485 5.03253 18.8397C4.74172 18.8301 4.49493 18.9768 3.97087 19.3073C3.38395 19.6774 2.21687 20.6971 1.46195 20.2108C1 19.9133 1 19.1575 1 17.6458L1 7.05426C1 4.20025 1 2.77325 1.87868 1.88663C2.75736 1 4.17157 1 7 1L19 1" stroke="#1B1464" stroke-width="1.5" stroke-linecap="round" stroke-linejoin="round"/>
<path id="Vector_3" d="M9 7C7.89543 7 7 7.67157 7 8.5C7 9.32843 7.89543 10 9 10C10.1046 10 11 10.6716 11 11.5C11 12.3284 10.1046 13 9 13M9 7C9.87081 7 10.6116 7.4174 10.8862 8M9 7V6M9 13C8.12919 13 7.38836 12.5826 7.1138 12M9 13V14" stroke="#CB003E" stroke-width="1.5" stroke-linecap="round"/>
</g>
</svg>
