<svg width="160" height="161" viewBox="0 0 160 161" fill="none" xmlns="http://www.w3.org/2000/svg">
<g clip-path="url(#clip0_1079_11628)">
<path d="M160 0.195312H0V160.195H160V0.195312Z" fill="white"/>
<path d="M14.8276 10.1953H10V15.0229H14.8276V10.1953Z" fill="#1A202C"/>
<path d="M19.6552 10.1953H14.8276V15.0229H19.6552V10.1953Z" fill="#1A202C"/>
<path d="M24.4828 10.1953H19.6552V15.0229H24.4828V10.1953Z" fill="#1A202C"/>
<path d="M29.3103 10.1953H24.4828V15.0229H29.3103V10.1953Z" fill="#1A202C"/>
<path d="M34.1379 10.1953H29.3103V15.0229H34.1379V10.1953Z" fill="#1A202C"/>
<path d="M38.9655 10.1953H34.1379V15.0229H38.9655V10.1953Z" fill="#1A202C"/>
<path d="M43.7931 10.1953H38.9655V15.0229H43.7931V10.1953Z" fill="#1A202C"/>
<path d="M53.4483 10.1953H48.6207V15.0229H53.4483V10.1953Z" fill="#1A202C"/>
<path d="M96.8966 10.1953H92.069V15.0229H96.8966V10.1953Z" fill="#1A202C"/>
<path d="M101.724 10.1953H96.8966V15.0229H101.724V10.1953Z" fill="#1A202C"/>
<path d="M106.552 10.1953H101.724V15.0229H106.552V10.1953Z" fill="#1A202C"/>
<path d="M111.379 10.1953H106.552V15.0229H111.379V10.1953Z" fill="#1A202C"/>
<path d="M121.034 10.1953H116.207V15.0229H121.034V10.1953Z" fill="#1A202C"/>
<path d="M125.862 10.1953H121.034V15.0229H125.862V10.1953Z" fill="#1A202C"/>
<path d="M130.69 10.1953H125.862V15.0229H130.69V10.1953Z" fill="#1A202C"/>
<path d="M135.517 10.1953H130.69V15.0229H135.517V10.1953Z" fill="#1A202C"/>
<path d="M140.345 10.1953H135.517V15.0229H140.345V10.1953Z" fill="#1A202C"/>
<path d="M145.172 10.1953H140.345V15.0229H145.172V10.1953Z" fill="#1A202C"/>
<path d="M150 10.1953H145.172V15.0229H150V10.1953Z" fill="#1A202C"/>
<path d="M14.8276 15.0229H10V19.8505H14.8276V15.0229Z" fill="#1A202C"/>
<path d="M43.7931 15.0229H38.9655V19.8505H43.7931V15.0229Z" fill="#1A202C"/>
<path d="M72.7586 15.0229H67.931V19.8505H72.7586V15.0229Z" fill="#1A202C"/>
<path d="M87.2414 15.0229H82.4138V19.8505H87.2414V15.0229Z" fill="#1A202C"/>
<path d="M101.724 15.0229H96.8966V19.8505H101.724V15.0229Z" fill="#1A202C"/>
<path d="M106.552 15.0229H101.724V19.8505H106.552V15.0229Z" fill="#1A202C"/>
<path d="M111.379 15.0229H106.552V19.8505H111.379V15.0229Z" fill="#1A202C"/>
<path d="M121.034 15.0229H116.207V19.8505H121.034V15.0229Z" fill="#1A202C"/>
<path d="M150 15.0229H145.172V19.8505H150V15.0229Z" fill="#1A202C"/>
<path d="M14.8276 19.8505H10V24.6781H14.8276V19.8505Z" fill="#1A202C"/>
<path d="M24.4828 19.8505H19.6552V24.6781H24.4828V19.8505Z" fill="#1A202C"/>
<path d="M29.3103 19.8505H24.4828V24.6781H29.3103V19.8505Z" fill="#1A202C"/>
<path d="M34.1379 19.8505H29.3103V24.6781H34.1379V19.8505Z" fill="#1A202C"/>
<path d="M43.7931 19.8505H38.9655V24.6781H43.7931V19.8505Z" fill="#1A202C"/>
<path d="M58.2759 19.8505H53.4483V24.6781H58.2759V19.8505Z" fill="#1A202C"/>
<path d="M63.1035 19.8505H58.2759V24.6781H63.1035V19.8505Z" fill="#1A202C"/>
<path d="M87.2414 19.8505H82.4138V24.6781H87.2414V19.8505Z" fill="#1A202C"/>
<path d="M92.069 19.8505H87.2414V24.6781H92.069V19.8505Z" fill="#1A202C"/>
<path d="M101.724 19.8505H96.8966V24.6781H101.724V19.8505Z" fill="#1A202C"/>
<path d="M106.552 19.8505H101.724V24.6781H106.552V19.8505Z" fill="#1A202C"/>
<path d="M121.034 19.8505H116.207V24.6781H121.034V19.8505Z" fill="#1A202C"/>
<path d="M130.69 19.8505H125.862V24.6781H130.69V19.8505Z" fill="#1A202C"/>
<path d="M135.517 19.8505H130.69V24.6781H135.517V19.8505Z" fill="#1A202C"/>
<path d="M140.345 19.8505H135.517V24.6781H140.345V19.8505Z" fill="#1A202C"/>
<path d="M150 19.8505H145.172V24.6781H150V19.8505Z" fill="#1A202C"/>
<path d="M14.8276 24.6781H10V29.5057H14.8276V24.6781Z" fill="#1A202C"/>
<path d="M24.4828 24.6781H19.6552V29.5057H24.4828V24.6781Z" fill="#1A202C"/>
<path d="M29.3103 24.6781H24.4828V29.5057H29.3103V24.6781Z" fill="#1A202C"/>
<path d="M34.1379 24.6781H29.3103V29.5057H34.1379V24.6781Z" fill="#1A202C"/>
<path d="M43.7931 24.6781H38.9655V29.5057H43.7931V24.6781Z" fill="#1A202C"/>
<path d="M53.4483 24.6781H48.6207V29.5057H53.4483V24.6781Z" fill="#1A202C"/>
<path d="M67.931 24.6781H63.1035V29.5057H67.931V24.6781Z" fill="#1A202C"/>
<path d="M72.7586 24.6781H67.931V29.5057H72.7586V24.6781Z" fill="#1A202C"/>
<path d="M82.4138 24.6781H77.5862V29.5057H82.4138V24.6781Z" fill="#1A202C"/>
<path d="M106.552 24.6781H101.724V29.5057H106.552V24.6781Z" fill="#1A202C"/>
<path d="M121.034 24.6781H116.207V29.5057H121.034V24.6781Z" fill="#1A202C"/>
<path d="M130.69 24.6781H125.862V29.5057H130.69V24.6781Z" fill="#1A202C"/>
<path d="M135.517 24.6781H130.69V29.5057H135.517V24.6781Z" fill="#1A202C"/>
<path d="M140.345 24.6781H135.517V29.5057H140.345V24.6781Z" fill="#1A202C"/>
<path d="M150 24.6781H145.172V29.5057H150V24.6781Z" fill="#1A202C"/>
<path d="M14.8276 29.5057H10V34.3332H14.8276V29.5057Z" fill="#1A202C"/>
<path d="M24.4828 29.5057H19.6552V34.3332H24.4828V29.5057Z" fill="#1A202C"/>
<path d="M29.3103 29.5057H24.4828V34.3332H29.3103V29.5057Z" fill="#1A202C"/>
<path d="M34.1379 29.5057H29.3103V34.3332H34.1379V29.5057Z" fill="#1A202C"/>
<path d="M43.7931 29.5057H38.9655V34.3332H43.7931V29.5057Z" fill="#1A202C"/>
<path d="M53.4483 29.5057H48.6207V34.3332H53.4483V29.5057Z" fill="#1A202C"/>
<path d="M58.2759 29.5057H53.4483V34.3332H58.2759V29.5057Z" fill="#1A202C"/>
<path d="M63.1035 29.5057H58.2759V34.3332H63.1035V29.5057Z" fill="#1A202C"/>
<path d="M72.7586 29.5057H67.931V34.3332H72.7586V29.5057Z" fill="#1A202C"/>
<path d="M82.4138 29.5057H77.5862V34.3332H82.4138V29.5057Z" fill="#1A202C"/>
<path d="M92.069 29.5057H87.2414V34.3332H92.069V29.5057Z" fill="#1A202C"/>
<path d="M96.8966 29.5057H92.069V34.3332H96.8966V29.5057Z" fill="#1A202C"/>
<path d="M101.724 29.5057H96.8966V34.3332H101.724V29.5057Z" fill="#1A202C"/>
<path d="M111.379 29.5057H106.552V34.3332H111.379V29.5057Z" fill="#1A202C"/>
<path d="M121.034 29.5057H116.207V34.3332H121.034V29.5057Z" fill="#1A202C"/>
<path d="M130.69 29.5057H125.862V34.3332H130.69V29.5057Z" fill="#1A202C"/>
<path d="M135.517 29.5057H130.69V34.3332H135.517V29.5057Z" fill="#1A202C"/>
<path d="M140.345 29.5057H135.517V34.3332H140.345V29.5057Z" fill="#1A202C"/>
<path d="M150 29.5057H145.172V34.3332H150V29.5057Z" fill="#1A202C"/>
<path d="M14.8276 34.3332H10V39.1608H14.8276V34.3332Z" fill="#1A202C"/>
<path d="M43.7931 34.3332H38.9655V39.1608H43.7931V34.3332Z" fill="#1A202C"/>
<path d="M53.4483 34.3332H48.6207V39.1608H53.4483V34.3332Z" fill="#1A202C"/>
<path d="M58.2759 34.3332H53.4483V39.1608H58.2759V34.3332Z" fill="#1A202C"/>
<path d="M63.1035 34.3332H58.2759V39.1608H63.1035V34.3332Z" fill="#1A202C"/>
<path d="M67.931 34.3332H63.1035V39.1608H67.931V34.3332Z" fill="#1A202C"/>
<path d="M72.7586 34.3332H67.931V39.1608H72.7586V34.3332Z" fill="#1A202C"/>
<path d="M77.5862 34.3332H72.7586V39.1608H77.5862V34.3332Z" fill="#1A202C"/>
<path d="M82.4138 34.3332H77.5862V39.1608H82.4138V34.3332Z" fill="#1A202C"/>
<path d="M92.069 34.3332H87.2414V39.1608H92.069V34.3332Z" fill="#1A202C"/>
<path d="M96.8966 34.3332H92.069V39.1608H96.8966V34.3332Z" fill="#1A202C"/>
<path d="M101.724 34.3332H96.8966V39.1608H101.724V34.3332Z" fill="#1A202C"/>
<path d="M106.552 34.3332H101.724V39.1608H106.552V34.3332Z" fill="#1A202C"/>
<path d="M111.379 34.3332H106.552V39.1608H111.379V34.3332Z" fill="#1A202C"/>
<path d="M121.034 34.3332H116.207V39.1608H121.034V34.3332Z" fill="#1A202C"/>
<path d="M150 34.3332H145.172V39.1608H150V34.3332Z" fill="#1A202C"/>
<path d="M14.8276 39.1608H10V43.9884H14.8276V39.1608Z" fill="#1A202C"/>
<path d="M19.6552 39.1608H14.8276V43.9884H19.6552V39.1608Z" fill="#1A202C"/>
<path d="M24.4828 39.1608H19.6552V43.9884H24.4828V39.1608Z" fill="#1A202C"/>
<path d="M29.3103 39.1608H24.4828V43.9884H29.3103V39.1608Z" fill="#1A202C"/>
<path d="M34.1379 39.1608H29.3103V43.9884H34.1379V39.1608Z" fill="#1A202C"/>
<path d="M38.9655 39.1608H34.1379V43.9884H38.9655V39.1608Z" fill="#1A202C"/>
<path d="M43.7931 39.1608H38.9655V43.9884H43.7931V39.1608Z" fill="#1A202C"/>
<path d="M53.4483 39.1608H48.6207V43.9884H53.4483V39.1608Z" fill="#1A202C"/>
<path d="M63.1035 39.1608H58.2759V43.9884H63.1035V39.1608Z" fill="#1A202C"/>
<path d="M72.7586 39.1608H67.931V43.9884H72.7586V39.1608Z" fill="#1A202C"/>
<path d="M82.4138 39.1608H77.5862V43.9884H82.4138V39.1608Z" fill="#1A202C"/>
<path d="M92.069 39.1608H87.2414V43.9884H92.069V39.1608Z" fill="#1A202C"/>
<path d="M101.724 39.1608H96.8966V43.9884H101.724V39.1608Z" fill="#1A202C"/>
<path d="M111.379 39.1608H106.552V43.9884H111.379V39.1608Z" fill="#1A202C"/>
<path d="M121.034 39.1608H116.207V43.9884H121.034V39.1608Z" fill="#1A202C"/>
<path d="M125.862 39.1608H121.034V43.9884H125.862V39.1608Z" fill="#1A202C"/>
<path d="M130.69 39.1608H125.862V43.9884H130.69V39.1608Z" fill="#1A202C"/>
<path d="M135.517 39.1608H130.69V43.9884H135.517V39.1608Z" fill="#1A202C"/>
<path d="M140.345 39.1608H135.517V43.9884H140.345V39.1608Z" fill="#1A202C"/>
<path d="M145.172 39.1608H140.345V43.9884H145.172V39.1608Z" fill="#1A202C"/>
<path d="M150 39.1608H145.172V43.9884H150V39.1608Z" fill="#1A202C"/>
<path d="M53.4483 43.9884H48.6207V48.816H53.4483V43.9884Z" fill="#1A202C"/>
<path d="M58.2759 43.9884H53.4483V48.816H58.2759V43.9884Z" fill="#1A202C"/>
<path d="M63.1035 43.9884H58.2759V48.816H63.1035V43.9884Z" fill="#1A202C"/>
<path d="M87.2414 43.9884H82.4138V48.816H87.2414V43.9884Z" fill="#1A202C"/>
<path d="M96.8966 43.9884H92.069V48.816H96.8966V43.9884Z" fill="#1A202C"/>
<path d="M106.552 43.9884H101.724V48.816H106.552V43.9884Z" fill="#1A202C"/>
<path d="M111.379 43.9884H106.552V48.816H111.379V43.9884Z" fill="#1A202C"/>
<path d="M14.8276 48.816H10V53.6436H14.8276V48.816Z" fill="#1A202C"/>
<path d="M19.6552 48.816H14.8276V53.6436H19.6552V48.816Z" fill="#1A202C"/>
<path d="M24.4828 48.816H19.6552V53.6436H24.4828V48.816Z" fill="#1A202C"/>
<path d="M34.1379 48.816H29.3103V53.6436H34.1379V48.816Z" fill="#1A202C"/>
<path d="M43.7931 48.816H38.9655V53.6436H43.7931V48.816Z" fill="#1A202C"/>
<path d="M53.4483 48.816H48.6207V53.6436H53.4483V48.816Z" fill="#1A202C"/>
<path d="M67.931 48.816H63.1035V53.6436H67.931V48.816Z" fill="#1A202C"/>
<path d="M72.7586 48.816H67.931V53.6436H72.7586V48.816Z" fill="#1A202C"/>
<path d="M82.4138 48.816H77.5862V53.6436H82.4138V48.816Z" fill="#1A202C"/>
<path d="M87.2414 48.816H82.4138V53.6436H87.2414V48.816Z" fill="#1A202C"/>
<path d="M92.069 48.816H87.2414V53.6436H92.069V48.816Z" fill="#1A202C"/>
<path d="M96.8966 48.816H92.069V53.6436H96.8966V48.816Z" fill="#1A202C"/>
<path d="M106.552 48.816H101.724V53.6436H106.552V48.816Z" fill="#1A202C"/>
<path d="M116.207 48.816H111.379V53.6436H116.207V48.816Z" fill="#1A202C"/>
<path d="M121.034 48.816H116.207V53.6436H121.034V48.816Z" fill="#1A202C"/>
<path d="M125.862 48.816H121.034V53.6436H125.862V48.816Z" fill="#1A202C"/>
<path d="M130.69 48.816H125.862V53.6436H130.69V48.816Z" fill="#1A202C"/>
<path d="M135.517 48.816H130.69V53.6436H135.517V48.816Z" fill="#1A202C"/>
<path d="M150 48.816H145.172V53.6436H150V48.816Z" fill="#1A202C"/>
<path d="M14.8276 53.6436H10V58.4712H14.8276V53.6436Z" fill="#1A202C"/>
<path d="M19.6552 53.6436H14.8276V58.4712H19.6552V53.6436Z" fill="#1A202C"/>
<path d="M24.4828 53.6436H19.6552V58.4712H24.4828V53.6436Z" fill="#1A202C"/>
<path d="M29.3103 53.6436H24.4828V58.4712H29.3103V53.6436Z" fill="#1A202C"/>
<path d="M53.4483 53.6436H48.6207V58.4712H53.4483V53.6436Z" fill="#1A202C"/>
<path d="M58.2759 53.6436H53.4483V58.4712H58.2759V53.6436Z" fill="#1A202C"/>
<path d="M72.7586 53.6436H67.931V58.4712H72.7586V53.6436Z" fill="#1A202C"/>
<path d="M82.4138 53.6436H77.5862V58.4712H82.4138V53.6436Z" fill="#1A202C"/>
<path d="M87.2414 53.6436H82.4138V58.4712H87.2414V53.6436Z" fill="#1A202C"/>
<path d="M92.069 53.6436H87.2414V58.4712H92.069V53.6436Z" fill="#1A202C"/>
<path d="M96.8966 53.6436H92.069V58.4712H96.8966V53.6436Z" fill="#1A202C"/>
<path d="M101.724 53.6436H96.8966V58.4712H101.724V53.6436Z" fill="#1A202C"/>
<path d="M111.379 53.6436H106.552V58.4712H111.379V53.6436Z" fill="#1A202C"/>
<path d="M116.207 53.6436H111.379V58.4712H116.207V53.6436Z" fill="#1A202C"/>
<path d="M125.862 53.6436H121.034V58.4712H125.862V53.6436Z" fill="#1A202C"/>
<path d="M145.172 53.6436H140.345V58.4712H145.172V53.6436Z" fill="#1A202C"/>
<path d="M24.4828 58.4712H19.6552V63.2988H24.4828V58.4712Z" fill="#1A202C"/>
<path d="M43.7931 58.4712H38.9655V63.2988H43.7931V58.4712Z" fill="#1A202C"/>
<path d="M48.6207 58.4712H43.7931V63.2988H48.6207V58.4712Z" fill="#1A202C"/>
<path d="M58.2759 58.4712H53.4483V63.2988H58.2759V58.4712Z" fill="#1A202C"/>
<path d="M63.1035 58.4712H58.2759V63.2988H63.1035V58.4712Z" fill="#1A202C"/>
<path d="M72.7586 58.4712H67.931V63.2988H72.7586V58.4712Z" fill="#1A202C"/>
<path d="M87.2414 58.4712H82.4138V63.2988H87.2414V58.4712Z" fill="#1A202C"/>
<path d="M92.069 58.4712H87.2414V63.2988H92.069V58.4712Z" fill="#1A202C"/>
<path d="M106.552 58.4712H101.724V63.2988H106.552V58.4712Z" fill="#1A202C"/>
<path d="M116.207 58.4712H111.379V63.2988H116.207V58.4712Z" fill="#1A202C"/>
<path d="M130.69 58.4712H125.862V63.2988H130.69V58.4712Z" fill="#1A202C"/>
<path d="M135.517 58.4712H130.69V63.2988H135.517V58.4712Z" fill="#1A202C"/>
<path d="M140.345 58.4712H135.517V63.2988H140.345V58.4712Z" fill="#1A202C"/>
<path d="M145.172 58.4712H140.345V63.2988H145.172V58.4712Z" fill="#1A202C"/>
<path d="M150 58.4712H145.172V63.2988H150V58.4712Z" fill="#1A202C"/>
<path d="M19.6552 63.2988H14.8276V68.1264H19.6552V63.2988Z" fill="#1A202C"/>
<path d="M29.3103 63.2988H24.4828V68.1264H29.3103V63.2988Z" fill="#1A202C"/>
<path d="M53.4483 63.2988H48.6207V68.1264H53.4483V63.2988Z" fill="#1A202C"/>
<path d="M72.7586 63.2988H67.931V68.1264H72.7586V63.2988Z" fill="#1A202C"/>
<path d="M77.5862 63.2988H72.7586V68.1264H77.5862V63.2988Z" fill="#1A202C"/>
<path d="M101.724 63.2988H96.8966V68.1264H101.724V63.2988Z" fill="#1A202C"/>
<path d="M111.379 63.2988H106.552V68.1264H111.379V63.2988Z" fill="#1A202C"/>
<path d="M116.207 63.2988H111.379V68.1264H116.207V63.2988Z" fill="#1A202C"/>
<path d="M145.172 63.2988H140.345V68.1264H145.172V63.2988Z" fill="#1A202C"/>
<path d="M19.6552 68.1264H14.8276V72.9539H19.6552V68.1264Z" fill="#1A202C"/>
<path d="M24.4828 68.1264H19.6552V72.9539H24.4828V68.1264Z" fill="#1A202C"/>
<path d="M34.1379 68.1264H29.3103V72.9539H34.1379V68.1264Z" fill="#1A202C"/>
<path d="M43.7931 68.1264H38.9655V72.9539H43.7931V68.1264Z" fill="#1A202C"/>
<path d="M53.4483 68.1264H48.6207V72.9539H53.4483V68.1264Z" fill="#1A202C"/>
<path d="M58.2759 68.1264H53.4483V72.9539H58.2759V68.1264Z" fill="#1A202C"/>
<path d="M67.931 68.1264H63.1035V72.9539H67.931V68.1264Z" fill="#1A202C"/>
<path d="M77.5862 68.1264H72.7586V72.9539H77.5862V68.1264Z" fill="#1A202C"/>
<path d="M82.4138 68.1264H77.5862V72.9539H82.4138V68.1264Z" fill="#1A202C"/>
<path d="M111.379 68.1264H106.552V72.9539H111.379V68.1264Z" fill="#1A202C"/>
<path d="M116.207 68.1264H111.379V72.9539H116.207V68.1264Z" fill="#1A202C"/>
<path d="M135.517 68.1264H130.69V72.9539H135.517V68.1264Z" fill="#1A202C"/>
<path d="M150 68.1264H145.172V72.9539H150V68.1264Z" fill="#1A202C"/>
<path d="M19.6552 72.9539H14.8276V77.7815H19.6552V72.9539Z" fill="#1A202C"/>
<path d="M24.4828 72.9539H19.6552V77.7815H24.4828V72.9539Z" fill="#1A202C"/>
<path d="M34.1379 72.9539H29.3103V77.7815H34.1379V72.9539Z" fill="#1A202C"/>
<path d="M38.9655 72.9539H34.1379V77.7815H38.9655V72.9539Z" fill="#1A202C"/>
<path d="M53.4483 72.9539H48.6207V77.7815H53.4483V72.9539Z" fill="#1A202C"/>
<path d="M72.7586 72.9539H67.931V77.7815H72.7586V72.9539Z" fill="#1A202C"/>
<path d="M87.2414 72.9539H82.4138V77.7815H87.2414V72.9539Z" fill="#1A202C"/>
<path d="M101.724 72.9539H96.8966V77.7815H101.724V72.9539Z" fill="#1A202C"/>
<path d="M106.552 72.9539H101.724V77.7815H106.552V72.9539Z" fill="#1A202C"/>
<path d="M111.379 72.9539H106.552V77.7815H111.379V72.9539Z" fill="#1A202C"/>
<path d="M116.207 72.9539H111.379V77.7815H116.207V72.9539Z" fill="#1A202C"/>
<path d="M121.034 72.9539H116.207V77.7815H121.034V72.9539Z" fill="#1A202C"/>
<path d="M125.862 72.9539H121.034V77.7815H125.862V72.9539Z" fill="#1A202C"/>
<path d="M130.69 72.9539H125.862V77.7815H130.69V72.9539Z" fill="#1A202C"/>
<path d="M135.517 72.9539H130.69V77.7815H135.517V72.9539Z" fill="#1A202C"/>
<path d="M145.172 72.9539H140.345V77.7815H145.172V72.9539Z" fill="#1A202C"/>
<path d="M150 72.9539H145.172V77.7815H150V72.9539Z" fill="#1A202C"/>
<path d="M14.8276 77.7815H10V82.6091H14.8276V77.7815Z" fill="#1A202C"/>
<path d="M24.4828 77.7815H19.6552V82.6091H24.4828V77.7815Z" fill="#1A202C"/>
<path d="M29.3103 77.7815H24.4828V82.6091H29.3103V77.7815Z" fill="#1A202C"/>
<path d="M34.1379 77.7815H29.3103V82.6091H34.1379V77.7815Z" fill="#1A202C"/>
<path d="M38.9655 77.7815H34.1379V82.6091H38.9655V77.7815Z" fill="#1A202C"/>
<path d="M43.7931 77.7815H38.9655V82.6091H43.7931V77.7815Z" fill="#1A202C"/>
<path d="M48.6207 77.7815H43.7931V82.6091H48.6207V77.7815Z" fill="#1A202C"/>
<path d="M53.4483 77.7815H48.6207V82.6091H53.4483V77.7815Z" fill="#1A202C"/>
<path d="M58.2759 77.7815H53.4483V82.6091H58.2759V77.7815Z" fill="#1A202C"/>
<path d="M63.1035 77.7815H58.2759V82.6091H63.1035V77.7815Z" fill="#1A202C"/>
<path d="M67.931 77.7815H63.1035V82.6091H67.931V77.7815Z" fill="#1A202C"/>
<path d="M72.7586 77.7815H67.931V82.6091H72.7586V77.7815Z" fill="#1A202C"/>
<path d="M82.4138 77.7815H77.5862V82.6091H82.4138V77.7815Z" fill="#1A202C"/>
<path d="M87.2414 77.7815H82.4138V82.6091H87.2414V77.7815Z" fill="#1A202C"/>
<path d="M101.724 77.7815H96.8966V82.6091H101.724V77.7815Z" fill="#1A202C"/>
<path d="M135.517 77.7815H130.69V82.6091H135.517V77.7815Z" fill="#1A202C"/>
<path d="M145.172 77.7815H140.345V82.6091H145.172V77.7815Z" fill="#1A202C"/>
<path d="M150 77.7815H145.172V82.6091H150V77.7815Z" fill="#1A202C"/>
<path d="M29.3103 82.6091H24.4828V87.4367H29.3103V82.6091Z" fill="#1A202C"/>
<path d="M48.6207 82.6091H43.7931V87.4367H48.6207V82.6091Z" fill="#1A202C"/>
<path d="M53.4483 82.6091H48.6207V87.4367H53.4483V82.6091Z" fill="#1A202C"/>
<path d="M58.2759 82.6091H53.4483V87.4367H58.2759V82.6091Z" fill="#1A202C"/>
<path d="M63.1035 82.6091H58.2759V87.4367H63.1035V82.6091Z" fill="#1A202C"/>
<path d="M67.931 82.6091H63.1035V87.4367H67.931V82.6091Z" fill="#1A202C"/>
<path d="M77.5862 82.6091H72.7586V87.4367H77.5862V82.6091Z" fill="#1A202C"/>
<path d="M82.4138 82.6091H77.5862V87.4367H82.4138V82.6091Z" fill="#1A202C"/>
<path d="M96.8966 82.6091H92.069V87.4367H96.8966V82.6091Z" fill="#1A202C"/>
<path d="M101.724 82.6091H96.8966V87.4367H101.724V82.6091Z" fill="#1A202C"/>
<path d="M106.552 82.6091H101.724V87.4367H106.552V82.6091Z" fill="#1A202C"/>
<path d="M111.379 82.6091H106.552V87.4367H111.379V82.6091Z" fill="#1A202C"/>
<path d="M116.207 82.6091H111.379V87.4367H116.207V82.6091Z" fill="#1A202C"/>
<path d="M121.034 82.6091H116.207V87.4367H121.034V82.6091Z" fill="#1A202C"/>
<path d="M130.69 82.6091H125.862V87.4367H130.69V82.6091Z" fill="#1A202C"/>
<path d="M135.517 82.6091H130.69V87.4367H135.517V82.6091Z" fill="#1A202C"/>
<path d="M140.345 82.6091H135.517V87.4367H140.345V82.6091Z" fill="#1A202C"/>
<path d="M150 82.6091H145.172V87.4367H150V82.6091Z" fill="#1A202C"/>
<path d="M19.6552 87.4367H14.8276V92.2643H19.6552V87.4367Z" fill="#1A202C"/>
<path d="M29.3103 87.4367H24.4828V92.2643H29.3103V87.4367Z" fill="#1A202C"/>
<path d="M34.1379 87.4367H29.3103V92.2643H34.1379V87.4367Z" fill="#1A202C"/>
<path d="M43.7931 87.4367H38.9655V92.2643H43.7931V87.4367Z" fill="#1A202C"/>
<path d="M53.4483 87.4367H48.6207V92.2643H53.4483V87.4367Z" fill="#1A202C"/>
<path d="M72.7586 87.4367H67.931V92.2643H72.7586V87.4367Z" fill="#1A202C"/>
<path d="M82.4138 87.4367H77.5862V92.2643H82.4138V87.4367Z" fill="#1A202C"/>
<path d="M87.2414 87.4367H82.4138V92.2643H87.2414V87.4367Z" fill="#1A202C"/>
<path d="M121.034 87.4367H116.207V92.2643H121.034V87.4367Z" fill="#1A202C"/>
<path d="M130.69 87.4367H125.862V92.2643H130.69V87.4367Z" fill="#1A202C"/>
<path d="M135.517 87.4367H130.69V92.2643H135.517V87.4367Z" fill="#1A202C"/>
<path d="M140.345 87.4367H135.517V92.2643H140.345V87.4367Z" fill="#1A202C"/>
<path d="M14.8276 92.2643H10V97.0919H14.8276V92.2643Z" fill="#1A202C"/>
<path d="M29.3103 92.2643H24.4828V97.0919H29.3103V92.2643Z" fill="#1A202C"/>
<path d="M34.1379 92.2643H29.3103V97.0919H34.1379V92.2643Z" fill="#1A202C"/>
<path d="M53.4483 92.2643H48.6207V97.0919H53.4483V92.2643Z" fill="#1A202C"/>
<path d="M63.1035 92.2643H58.2759V97.0919H63.1035V92.2643Z" fill="#1A202C"/>
<path d="M67.931 92.2643H63.1035V97.0919H67.931V92.2643Z" fill="#1A202C"/>
<path d="M77.5862 92.2643H72.7586V97.0919H77.5862V92.2643Z" fill="#1A202C"/>
<path d="M82.4138 92.2643H77.5862V97.0919H82.4138V92.2643Z" fill="#1A202C"/>
<path d="M96.8966 92.2643H92.069V97.0919H96.8966V92.2643Z" fill="#1A202C"/>
<path d="M111.379 92.2643H106.552V97.0919H111.379V92.2643Z" fill="#1A202C"/>
<path d="M116.207 92.2643H111.379V97.0919H116.207V92.2643Z" fill="#1A202C"/>
<path d="M121.034 92.2643H116.207V97.0919H121.034V92.2643Z" fill="#1A202C"/>
<path d="M125.862 92.2643H121.034V97.0919H125.862V92.2643Z" fill="#1A202C"/>
<path d="M14.8276 97.0919H10V101.919H14.8276V97.0919Z" fill="#1A202C"/>
<path d="M24.4828 97.0919H19.6552V101.919H24.4828V97.0919Z" fill="#1A202C"/>
<path d="M34.1379 97.0919H29.3103V101.919H34.1379V97.0919Z" fill="#1A202C"/>
<path d="M38.9655 97.0919H34.1379V101.919H38.9655V97.0919Z" fill="#1A202C"/>
<path d="M43.7931 97.0919H38.9655V101.919H43.7931V97.0919Z" fill="#1A202C"/>
<path d="M48.6207 97.0919H43.7931V101.919H48.6207V97.0919Z" fill="#1A202C"/>
<path d="M58.2759 97.0919H53.4483V101.919H58.2759V97.0919Z" fill="#1A202C"/>
<path d="M63.1035 97.0919H58.2759V101.919H63.1035V97.0919Z" fill="#1A202C"/>
<path d="M77.5862 97.0919H72.7586V101.919H77.5862V97.0919Z" fill="#1A202C"/>
<path d="M87.2414 97.0919H82.4138V101.919H87.2414V97.0919Z" fill="#1A202C"/>
<path d="M96.8966 97.0919H92.069V101.919H96.8966V97.0919Z" fill="#1A202C"/>
<path d="M116.207 97.0919H111.379V101.919H116.207V97.0919Z" fill="#1A202C"/>
<path d="M125.862 97.0919H121.034V101.919H125.862V97.0919Z" fill="#1A202C"/>
<path d="M135.517 97.0919H130.69V101.919H135.517V97.0919Z" fill="#1A202C"/>
<path d="M140.345 97.0919H135.517V101.919H140.345V97.0919Z" fill="#1A202C"/>
<path d="M19.6552 101.919H14.8276V106.747H19.6552V101.919Z" fill="#1A202C"/>
<path d="M24.4828 101.919H19.6552V106.747H24.4828V101.919Z" fill="#1A202C"/>
<path d="M34.1379 101.919H29.3103V106.747H34.1379V101.919Z" fill="#1A202C"/>
<path d="M48.6207 101.919H43.7931V106.747H48.6207V101.919Z" fill="#1A202C"/>
<path d="M58.2759 101.919H53.4483V106.747H58.2759V101.919Z" fill="#1A202C"/>
<path d="M72.7586 101.919H67.931V106.747H72.7586V101.919Z" fill="#1A202C"/>
<path d="M82.4138 101.919H77.5862V106.747H82.4138V101.919Z" fill="#1A202C"/>
<path d="M92.069 101.919H87.2414V106.747H92.069V101.919Z" fill="#1A202C"/>
<path d="M96.8966 101.919H92.069V106.747H96.8966V101.919Z" fill="#1A202C"/>
<path d="M101.724 101.919H96.8966V106.747H101.724V101.919Z" fill="#1A202C"/>
<path d="M106.552 101.919H101.724V106.747H106.552V101.919Z" fill="#1A202C"/>
<path d="M116.207 101.919H111.379V106.747H116.207V101.919Z" fill="#1A202C"/>
<path d="M121.034 101.919H116.207V106.747H121.034V101.919Z" fill="#1A202C"/>
<path d="M125.862 101.919H121.034V106.747H125.862V101.919Z" fill="#1A202C"/>
<path d="M130.69 101.919H125.862V106.747H130.69V101.919Z" fill="#1A202C"/>
<path d="M135.517 101.919H130.69V106.747H135.517V101.919Z" fill="#1A202C"/>
<path d="M150 101.919H145.172V106.747H150V101.919Z" fill="#1A202C"/>
<path d="M29.3103 106.747H24.4828V111.575H29.3103V106.747Z" fill="#1A202C"/>
<path d="M38.9655 106.747H34.1379V111.575H38.9655V106.747Z" fill="#1A202C"/>
<path d="M43.7931 106.747H38.9655V111.575H43.7931V106.747Z" fill="#1A202C"/>
<path d="M48.6207 106.747H43.7931V111.575H48.6207V106.747Z" fill="#1A202C"/>
<path d="M63.1035 106.747H58.2759V111.575H63.1035V106.747Z" fill="#1A202C"/>
<path d="M82.4138 106.747H77.5862V111.575H82.4138V106.747Z" fill="#1A202C"/>
<path d="M92.069 106.747H87.2414V111.575H92.069V106.747Z" fill="#1A202C"/>
<path d="M96.8966 106.747H92.069V111.575H96.8966V106.747Z" fill="#1A202C"/>
<path d="M106.552 106.747H101.724V111.575H106.552V106.747Z" fill="#1A202C"/>
<path d="M111.379 106.747H106.552V111.575H111.379V106.747Z" fill="#1A202C"/>
<path d="M116.207 106.747H111.379V111.575H116.207V106.747Z" fill="#1A202C"/>
<path d="M121.034 106.747H116.207V111.575H121.034V106.747Z" fill="#1A202C"/>
<path d="M125.862 106.747H121.034V111.575H125.862V106.747Z" fill="#1A202C"/>
<path d="M130.69 106.747H125.862V111.575H130.69V106.747Z" fill="#1A202C"/>
<path d="M135.517 106.747H130.69V111.575H135.517V106.747Z" fill="#1A202C"/>
<path d="M140.345 106.747H135.517V111.575H140.345V106.747Z" fill="#1A202C"/>
<path d="M150 106.747H145.172V111.575H150V106.747Z" fill="#1A202C"/>
<path d="M53.4483 111.575H48.6207V116.402H53.4483V111.575Z" fill="#1A202C"/>
<path d="M63.1035 111.575H58.2759V116.402H63.1035V111.575Z" fill="#1A202C"/>
<path d="M67.931 111.575H63.1035V116.402H67.931V111.575Z" fill="#1A202C"/>
<path d="M82.4138 111.575H77.5862V116.402H82.4138V111.575Z" fill="#1A202C"/>
<path d="M87.2414 111.575H82.4138V116.402H87.2414V111.575Z" fill="#1A202C"/>
<path d="M96.8966 111.575H92.069V116.402H96.8966V111.575Z" fill="#1A202C"/>
<path d="M111.379 111.575H106.552V116.402H111.379V111.575Z" fill="#1A202C"/>
<path d="M130.69 111.575H125.862V116.402H130.69V111.575Z" fill="#1A202C"/>
<path d="M135.517 111.575H130.69V116.402H135.517V111.575Z" fill="#1A202C"/>
<path d="M140.345 111.575H135.517V116.402H140.345V111.575Z" fill="#1A202C"/>
<path d="M145.172 111.575H140.345V116.402H145.172V111.575Z" fill="#1A202C"/>
<path d="M14.8276 116.402H10V121.23H14.8276V116.402Z" fill="#1A202C"/>
<path d="M19.6552 116.402H14.8276V121.23H19.6552V116.402Z" fill="#1A202C"/>
<path d="M24.4828 116.402H19.6552V121.23H24.4828V116.402Z" fill="#1A202C"/>
<path d="M29.3103 116.402H24.4828V121.23H29.3103V116.402Z" fill="#1A202C"/>
<path d="M34.1379 116.402H29.3103V121.23H34.1379V116.402Z" fill="#1A202C"/>
<path d="M38.9655 116.402H34.1379V121.23H38.9655V116.402Z" fill="#1A202C"/>
<path d="M43.7931 116.402H38.9655V121.23H43.7931V116.402Z" fill="#1A202C"/>
<path d="M63.1035 116.402H58.2759V121.23H63.1035V116.402Z" fill="#1A202C"/>
<path d="M67.931 116.402H63.1035V121.23H67.931V116.402Z" fill="#1A202C"/>
<path d="M72.7586 116.402H67.931V121.23H72.7586V116.402Z" fill="#1A202C"/>
<path d="M77.5862 116.402H72.7586V121.23H77.5862V116.402Z" fill="#1A202C"/>
<path d="M82.4138 116.402H77.5862V121.23H82.4138V116.402Z" fill="#1A202C"/>
<path d="M101.724 116.402H96.8966V121.23H101.724V116.402Z" fill="#1A202C"/>
<path d="M111.379 116.402H106.552V121.23H111.379V116.402Z" fill="#1A202C"/>
<path d="M121.034 116.402H116.207V121.23H121.034V116.402Z" fill="#1A202C"/>
<path d="M130.69 116.402H125.862V121.23H130.69V116.402Z" fill="#1A202C"/>
<path d="M150 116.402H145.172V121.23H150V116.402Z" fill="#1A202C"/>
<path d="M14.8276 121.23H10V126.057H14.8276V121.23Z" fill="#1A202C"/>
<path d="M43.7931 121.23H38.9655V126.057H43.7931V121.23Z" fill="#1A202C"/>
<path d="M58.2759 121.23H53.4483V126.057H58.2759V121.23Z" fill="#1A202C"/>
<path d="M63.1035 121.23H58.2759V126.057H63.1035V121.23Z" fill="#1A202C"/>
<path d="M72.7586 121.23H67.931V126.057H72.7586V121.23Z" fill="#1A202C"/>
<path d="M82.4138 121.23H77.5862V126.057H82.4138V121.23Z" fill="#1A202C"/>
<path d="M87.2414 121.23H82.4138V126.057H87.2414V121.23Z" fill="#1A202C"/>
<path d="M106.552 121.23H101.724V126.057H106.552V121.23Z" fill="#1A202C"/>
<path d="M111.379 121.23H106.552V126.057H111.379V121.23Z" fill="#1A202C"/>
<path d="M130.69 121.23H125.862V126.057H130.69V121.23Z" fill="#1A202C"/>
<path d="M135.517 121.23H130.69V126.057H135.517V121.23Z" fill="#1A202C"/>
<path d="M140.345 121.23H135.517V126.057H140.345V121.23Z" fill="#1A202C"/>
<path d="M145.172 121.23H140.345V126.057H145.172V121.23Z" fill="#1A202C"/>
<path d="M14.8276 126.057H10V130.885H14.8276V126.057Z" fill="#1A202C"/>
<path d="M24.4828 126.057H19.6552V130.885H24.4828V126.057Z" fill="#1A202C"/>
<path d="M29.3103 126.057H24.4828V130.885H29.3103V126.057Z" fill="#1A202C"/>
<path d="M34.1379 126.057H29.3103V130.885H34.1379V126.057Z" fill="#1A202C"/>
<path d="M43.7931 126.057H38.9655V130.885H43.7931V126.057Z" fill="#1A202C"/>
<path d="M53.4483 126.057H48.6207V130.885H53.4483V126.057Z" fill="#1A202C"/>
<path d="M58.2759 126.057H53.4483V130.885H58.2759V126.057Z" fill="#1A202C"/>
<path d="M77.5862 126.057H72.7586V130.885H77.5862V126.057Z" fill="#1A202C"/>
<path d="M87.2414 126.057H82.4138V130.885H87.2414V126.057Z" fill="#1A202C"/>
<path d="M96.8966 126.057H92.069V130.885H96.8966V126.057Z" fill="#1A202C"/>
<path d="M106.552 126.057H101.724V130.885H106.552V126.057Z" fill="#1A202C"/>
<path d="M111.379 126.057H106.552V130.885H111.379V126.057Z" fill="#1A202C"/>
<path d="M116.207 126.057H111.379V130.885H116.207V126.057Z" fill="#1A202C"/>
<path d="M121.034 126.057H116.207V130.885H121.034V126.057Z" fill="#1A202C"/>
<path d="M125.862 126.057H121.034V130.885H125.862V126.057Z" fill="#1A202C"/>
<path d="M130.69 126.057H125.862V130.885H130.69V126.057Z" fill="#1A202C"/>
<path d="M140.345 126.057H135.517V130.885H140.345V126.057Z" fill="#1A202C"/>
<path d="M150 126.057H145.172V130.885H150V126.057Z" fill="#1A202C"/>
<path d="M14.8276 130.885H10V135.713H14.8276V130.885Z" fill="#1A202C"/>
<path d="M24.4828 130.885H19.6552V135.713H24.4828V130.885Z" fill="#1A202C"/>
<path d="M29.3103 130.885H24.4828V135.713H29.3103V130.885Z" fill="#1A202C"/>
<path d="M34.1379 130.885H29.3103V135.713H34.1379V130.885Z" fill="#1A202C"/>
<path d="M43.7931 130.885H38.9655V135.713H43.7931V130.885Z" fill="#1A202C"/>
<path d="M67.931 130.885H63.1035V135.713H67.931V130.885Z" fill="#1A202C"/>
<path d="M77.5862 130.885H72.7586V135.713H77.5862V130.885Z" fill="#1A202C"/>
<path d="M92.069 130.885H87.2414V135.713H92.069V130.885Z" fill="#1A202C"/>
<path d="M101.724 130.885H96.8966V135.713H101.724V130.885Z" fill="#1A202C"/>
<path d="M106.552 130.885H101.724V135.713H106.552V130.885Z" fill="#1A202C"/>
<path d="M111.379 130.885H106.552V135.713H111.379V130.885Z" fill="#1A202C"/>
<path d="M116.207 130.885H111.379V135.713H116.207V130.885Z" fill="#1A202C"/>
<path d="M121.034 130.885H116.207V135.713H121.034V130.885Z" fill="#1A202C"/>
<path d="M130.69 130.885H125.862V135.713H130.69V130.885Z" fill="#1A202C"/>
<path d="M145.172 130.885H140.345V135.713H145.172V130.885Z" fill="#1A202C"/>
<path d="M150 130.885H145.172V135.713H150V130.885Z" fill="#1A202C"/>
<path d="M14.8276 135.713H10V140.54H14.8276V135.713Z" fill="#1A202C"/>
<path d="M24.4828 135.713H19.6552V140.54H24.4828V135.713Z" fill="#1A202C"/>
<path d="M29.3103 135.713H24.4828V140.54H29.3103V135.713Z" fill="#1A202C"/>
<path d="M34.1379 135.713H29.3103V140.54H34.1379V135.713Z" fill="#1A202C"/>
<path d="M43.7931 135.713H38.9655V140.54H43.7931V135.713Z" fill="#1A202C"/>
<path d="M53.4483 135.713H48.6207V140.54H53.4483V135.713Z" fill="#1A202C"/>
<path d="M58.2759 135.713H53.4483V140.54H58.2759V135.713Z" fill="#1A202C"/>
<path d="M63.1035 135.713H58.2759V140.54H63.1035V135.713Z" fill="#1A202C"/>
<path d="M77.5862 135.713H72.7586V140.54H77.5862V135.713Z" fill="#1A202C"/>
<path d="M82.4138 135.713H77.5862V140.54H82.4138V135.713Z" fill="#1A202C"/>
<path d="M87.2414 135.713H82.4138V140.54H87.2414V135.713Z" fill="#1A202C"/>
<path d="M96.8966 135.713H92.069V140.54H96.8966V135.713Z" fill="#1A202C"/>
<path d="M106.552 135.713H101.724V140.54H106.552V135.713Z" fill="#1A202C"/>
<path d="M111.379 135.713H106.552V140.54H111.379V135.713Z" fill="#1A202C"/>
<path d="M140.345 135.713H135.517V140.54H140.345V135.713Z" fill="#1A202C"/>
<path d="M145.172 135.713H140.345V140.54H145.172V135.713Z" fill="#1A202C"/>
<path d="M14.8276 140.54H10V145.368H14.8276V140.54Z" fill="#1A202C"/>
<path d="M43.7931 140.54H38.9655V145.368H43.7931V140.54Z" fill="#1A202C"/>
<path d="M53.4483 140.54H48.6207V145.368H53.4483V140.54Z" fill="#1A202C"/>
<path d="M58.2759 140.54H53.4483V145.368H58.2759V140.54Z" fill="#1A202C"/>
<path d="M77.5862 140.54H72.7586V145.368H77.5862V140.54Z" fill="#1A202C"/>
<path d="M96.8966 140.54H92.069V145.368H96.8966V140.54Z" fill="#1A202C"/>
<path d="M111.379 140.54H106.552V145.368H111.379V140.54Z" fill="#1A202C"/>
<path d="M125.862 140.54H121.034V145.368H125.862V140.54Z" fill="#1A202C"/>
<path d="M140.345 140.54H135.517V145.368H140.345V140.54Z" fill="#1A202C"/>
<path d="M14.8276 145.368H10V150.195H14.8276V145.368Z" fill="#1A202C"/>
<path d="M19.6552 145.368H14.8276V150.195H19.6552V145.368Z" fill="#1A202C"/>
<path d="M24.4828 145.368H19.6552V150.195H24.4828V145.368Z" fill="#1A202C"/>
<path d="M29.3103 145.368H24.4828V150.195H29.3103V145.368Z" fill="#1A202C"/>
<path d="M34.1379 145.368H29.3103V150.195H34.1379V145.368Z" fill="#1A202C"/>
<path d="M38.9655 145.368H34.1379V150.195H38.9655V145.368Z" fill="#1A202C"/>
<path d="M43.7931 145.368H38.9655V150.195H43.7931V145.368Z" fill="#1A202C"/>
<path d="M53.4483 145.368H48.6207V150.195H53.4483V145.368Z" fill="#1A202C"/>
<path d="M67.931 145.368H63.1035V150.195H67.931V145.368Z" fill="#1A202C"/>
<path d="M72.7586 145.368H67.931V150.195H72.7586V145.368Z" fill="#1A202C"/>
<path d="M77.5862 145.368H72.7586V150.195H77.5862V145.368Z" fill="#1A202C"/>
<path d="M82.4138 145.368H77.5862V150.195H82.4138V145.368Z" fill="#1A202C"/>
<path d="M87.2414 145.368H82.4138V150.195H87.2414V145.368Z" fill="#1A202C"/>
<path d="M101.724 145.368H96.8966V150.195H101.724V145.368Z" fill="#1A202C"/>
<path d="M125.862 145.368H121.034V150.195H125.862V145.368Z" fill="#1A202C"/>
<path d="M130.69 145.368H125.862V150.195H130.69V145.368Z" fill="#1A202C"/>
<path d="M135.517 145.368H130.69V150.195H135.517V145.368Z" fill="#1A202C"/>
<path d="M140.345 145.368H135.517V150.195H140.345V145.368Z" fill="#1A202C"/>
<path d="M145.172 145.368H140.345V150.195H145.172V145.368Z" fill="#1A202C"/>
</g>
<defs>
<clipPath id="clip0_1079_11628">
<rect y="0.195312" width="160" height="160" rx="8" fill="white"/>
</clipPath>
</defs>
</svg>
